# xmcd
#
# Track frame offsets: 
#        150
#        14405
#        28976
#        43098
#        57036
#        68814
#        81629
#        94413
#        108864
#        121582
#        135907
#        151820
#        166060
#        180993
#        194844
#        208983
#        222389
#        236367
#        250894
#        264141
#        279502
#        294677
#        309077
#        321186
#        333634
#        347396
#        361000
#        374786
#        387126
#
# Disc length: 5330 seconds
#
# Revision: 0
# Processed by: cddbd v1.5.2PL0 Copyright (c) Steve Scherf et al.
# Submitted via: ExactAudioCopy v1.0b3
#
DISCID=b014d01d
DTITLE=Various Artist - Acoustic Blues
DYEAR=1930
DGENRE=Akustischer Blues
TTITLE0=Mississippi Sheiks - Sitting On Top Of The World
TTITLE1=Garfield Akers - Dough Roller Blues
TTITLE2=Son House - My Black Mama - Part 1
TTITLE3=Willie Brown - M and O Blues
TTITLE4=Charley Jordan - Stack O'Dollars Blues
TTITLE5='Funny Paper' Smith - Howling Wolf Blues - No.1
TTITLE6=Skip James - I'm So Glad
TTITLE7=King Solomon Hill - Times Has Done Got Hard
TTITLE8=Big Bill - Long Tall Mama
TTITLE9=Joshua White - Good Gal
TTITLE10=Tampa Red - Black Angel Blues
TTITLE11=Lead Belly - Midnight Special
TTITLE12=Memphis Minnie - Chickasaw Train Blues (Low Down Dirty Thing)
TTITLE13=Kokomo Arnold - Milk Cow Blues
TTITLE14=Johnnie Temple - Lead Pencil Blues (It Just Won't Write)
TTITLE15=Sleepy John Estes - Someday Baby Blues
TTITLE16=Blind Gary - Cross And Evil Woman Blues
TTITLE17=Blind Boy Fuller - Rag, Mama, Rag
TTITLE18=Carl Martin - Crow Jane
TTITLE19=Joe Williams' Washboard Blues Singers - Baby Please Don't Go
TTITLE20=Casey Bill - Somebody Changed The Lock On My Door
TTITLE21=Oscar Woods - Lone Wolf Blues
TTITLE22=Robert Johnson - Cross Road Blues
TTITLE23=Black Ace - Black Ace
TTITLE24=Robert Lee McCoy - Prowling Night-Hawk
TTITLE25=Bukka White - Shake 'Em On Down
TTITLE26=Bo Carter - Old Devil
TTITLE27=Sister Rosetta Tharpe - This Train
TTITLE28=Tommy McClennan - Bottle It Up And Go
EXTD=
EXTT0=
EXTT1=
EXTT2=
EXTT3=
EXTT4=
EXTT5=
EXTT6=
EXTT7=
EXTT8=
EXTT9=
EXTT10=
EXTT11=
EXTT12=
EXTT13=
EXTT14=
EXTT15=
EXTT16=
EXTT17=
EXTT18=
EXTT19=
EXTT20=
EXTT21=
EXTT22=
EXTT23=
EXTT24=
EXTT25=
EXTT26=
EXTT27=
EXTT28=
PLAYORDER=
